<svg width="320" height="320" viewBox="0 0 320 320" fill="none" xmlns="http://www.w3.org/2000/svg">
<g clip-path="url(#clip0_1_62)">
<rect x="61.0188" y="-4.3411" width="250" height="250" rx="20" transform="rotate(15 61.0188 -4.3411)" fill="#707070"/>
<line x1="7.73305" y1="195.263" x2="81.4567" y2="143.641" stroke="white"/>
<line x1="114.988" y1="192.943" x2="200.999" y2="132.718" stroke="white"/>
<line x1="115.568" y1="192.588" x2="81.1535" y2="143.439" stroke="white"/>
<line x1="260.922" y1="219.282" x2="200.697" y2="133.271" stroke="white"/>
<path d="M140.8 81.0288C132.992 86.6755 117.903 96.228 99.5301 104.691C89.1165 90.3971 84.2021 80.7138 75.6009 63.5587C61.8254 41.6705 98.5624 10.7278 115.74 44.1948C149.34 24.961 162.875 68.1192 140.8 81.0288Z" fill="white"/>
<rect x="18.314" y="82.6979" width="250" height="250" rx="20" transform="rotate(-15 18.314 82.6979)" fill="#CFCFCF"/>
<line x1="71.969" y1="282.203" x2="110.005" y2="200.635" stroke="white"/>
<line x1="163.695" y1="226.567" x2="208.07" y2="131.404" stroke="white"/>
<line x1="164.02" y1="225.969" x2="109.641" y2="200.611" stroke="white"/>
<line x1="303.247" y1="176.409" x2="208.085" y2="132.034" stroke="white"/>
<path d="M130.092 116.74C126.153 125.534 117.862 141.351 106.182 157.867C90.0165 150.695 80.9188 144.766 64.8924 134.21C42.0184 122.142 58.3622 76.9761 89.972 97.3705C109.453 63.9138 142.754 94.5223 130.092 116.74Z" fill="white"/>
<rect x="32" y="29" width="250" height="250" rx="20" fill="#353535"/>
<line x1="31.8438" y1="237.563" x2="89.6947" y2="168.619" stroke="white"/>
<line x1="134.844" y1="207.563" x2="202.336" y2="127.129" stroke="white"/>
<line x1="135.312" y1="207.07" x2="89.3496" y2="168.503" stroke="white"/>
<line x1="282.623" y1="195.234" x2="202.188" y2="127.741" stroke="white"/>
<path d="M130.811 92.7817C124.73 100.257 112.628 113.389 97.0714 126.319C83.3131 115.207 76.0599 107.126 63.3117 92.7817C44.3405 75.2047 71.8171 35.8081 97.0714 63.6888C124.548 36.4142 148.792 74.5986 130.811 92.7817Z" fill="white"/>
</g>
<defs>
<clipPath id="clip0_1_62">
<rect width="320" height="320" fill="white"/>
</clipPath>
</defs>
</svg>
