<svg viewBox="0 0 500 500" fill="none" xmlns="http://www.w3.org/2000/svg">
<path d="M90 328C243.479 290.664 328.011 197.596 359 91" stroke="#F1B869" stroke-width="120" stroke-linecap="round"/>
<path d="M67 376C252.429 326.849 354.56 204.329 392 64" stroke="#E34752" stroke-width="120" stroke-linecap="round"/>
<path d="M147 415C300.479 377.664 385.011 284.596 416 178" stroke="#F1B869" stroke-width="160" stroke-linecap="round"/>
<circle cx="230" cy="316" r="45" fill="#0A0A0A"/>
<circle cx="218.5" cy="302.5" r="17.5" fill="#F1F1F1"/>
<circle cx="243.5" cy="320.5" r="7.5" fill="#F1F1F1"/>
<path d="M251.01 290L253.792 297.32L261.617 300.607L253.792 302.813L251.01 311.213L247.981 302.813L240.404 300.607L247.981 297.32L251.01 290Z" fill="#F1F1F1"/>
<path d="M224.657 328L226.14 331.904L230.314 333.657L226.14 334.833L224.657 339.314L223.041 334.833L219 333.657L223.041 331.904L224.657 328Z" fill="#F1F1F1"/>
<circle cx="332" cy="227" r="45" fill="#0A0A0A"/>
<circle cx="320.5" cy="213.5" r="17.5" fill="#F1F1F1"/>
<circle cx="345.5" cy="231.5" r="7.5" fill="#F1F1F1"/>
<path d="M353.01 201L355.792 208.32L363.617 211.607L355.792 213.813L353.01 222.213L349.981 213.813L342.404 211.607L349.981 208.32L353.01 201Z" fill="#F1F1F1"/>
<path d="M326.657 239L328.14 242.904L332.314 244.657L328.14 245.833L326.657 250.314L325.041 245.833L321 244.657L325.041 242.904L326.657 239Z" fill="#F1F1F1"/>
<path d="M422.301 297.436C438.008 323.094 421.058 362.066 384.442 384.481C347.825 406.897 305.409 404.268 289.702 378.61C273.994 352.952 303.683 334.79 340.3 312.374C376.916 289.959 406.594 271.778 422.301 297.436Z" fill="#0A0A0A"/>
<path d="M409.899 350.314C417.051 360.608 400.145 374.476 388.212 382.766C376.279 391.057 365.573 397.144 358.421 386.85C351.268 376.556 355.144 361.489 367.077 353.198C379.01 344.907 402.747 340.019 409.899 350.314Z" fill="#E5757D"/>
</svg>
