<svg width="100" height="100" viewBox="0 0 100 100" fill="none" xmlns="http://www.w3.org/2000/svg">
<path d="M90.2344 0H9.76562C4.37222 0 0 4.37222 0 9.76562V90.2344C0 95.6278 4.37222 100 9.76562 100H90.2344C95.6278 100 100 95.6278 100 90.2344V9.76562C100 4.37222 95.6278 0 90.2344 0Z" fill="#3178C6"/>
<path d="M90.2344 0H9.76562C4.37222 0 0 4.37222 0 9.76562V90.2344C0 95.6278 4.37222 100 9.76562 100H90.2344C95.6278 100 100 95.6278 100 90.2344V9.76562C100 4.37222 95.6278 0 90.2344 0Z" fill="#3178C6"/>
<path fill-rule="evenodd" clip-rule="evenodd" d="M61.9021 79.575V89.3525C63.4916 90.1674 65.3715 90.7783 67.5418 91.1857C69.7121 91.5932 71.9994 91.7969 74.4041 91.7969C76.7477 91.7969 78.9738 91.5729 81.083 91.1246C83.1922 90.6766 85.0416 89.9381 86.6311 88.9094C88.2205 87.8809 89.4789 86.5363 90.4061 84.8762C91.3332 83.216 91.7969 81.1639 91.7969 78.7195C91.7969 76.9473 91.532 75.3941 91.0022 74.06C90.4723 72.7258 89.7082 71.5393 88.7096 70.5004C87.7111 69.4615 86.5139 68.5295 85.118 67.7045C83.7221 66.8795 82.1479 66.1004 80.3953 65.3672C79.1115 64.8375 77.9602 64.3232 76.9412 63.8242C75.9223 63.325 75.0562 62.8158 74.343 62.2965C73.6297 61.777 73.0795 61.227 72.6924 60.6465C72.3053 60.0658 72.1115 59.409 72.1115 58.6756C72.1115 58.0035 72.2848 57.3975 72.6313 56.8576C72.9777 56.3178 73.4668 55.8545 74.0984 55.4674C74.7303 55.0805 75.5045 54.7799 76.4215 54.566C77.3387 54.3521 78.3574 54.2453 79.4783 54.2453C80.2934 54.2453 81.1543 54.3064 82.0611 54.4285C82.968 54.5508 83.8799 54.7393 84.7971 54.9937C85.7141 55.2484 86.6055 55.5693 87.4717 55.9563C88.3377 56.3434 89.1375 56.7914 89.8711 57.3008V48.1648C88.3836 47.5945 86.7584 47.1719 84.9957 46.8969C83.233 46.6219 81.2104 46.4844 78.9281 46.4844C76.6049 46.4844 74.4041 46.734 72.3256 47.233C70.2471 47.732 68.4182 48.5111 66.8387 49.5703C65.2594 50.6297 64.0113 51.9791 63.0943 53.6189C62.1773 55.2586 61.7188 57.2191 61.7188 59.5006C61.7188 62.4135 62.5594 64.8986 64.2406 66.9561C65.9217 69.0133 68.474 70.7549 71.8977 72.1809C73.2426 72.7309 74.4959 73.2705 75.6574 73.8002C76.8189 74.3299 77.8227 74.8799 78.6682 75.4502C79.5139 76.0205 80.1812 76.6418 80.6705 77.3141C81.1596 77.9861 81.4041 78.75 81.4041 79.6057C81.4041 80.2371 81.2512 80.8227 80.9455 81.3625C80.6398 81.9023 80.1762 82.3707 79.5547 82.768C78.9332 83.1652 78.1588 83.4758 77.2316 83.6998C76.3043 83.924 75.2193 84.0359 73.9762 84.0359C71.8568 84.0359 69.758 83.6643 67.6793 82.9207C65.6008 82.1773 63.675 81.0621 61.9021 79.575ZM45.4648 55.4848H58.0078V47.4609H23.0469V55.4848H35.5285V91.2109H45.4648V55.4848Z" fill="white"/>
<path d="M19.5068 35H17.002V15.7812H10.2637V13.584H26.2158V15.7812H19.5068V35ZM36.9531 35V13.584H39.4434V35H36.9531ZM58.4277 13.584C61.1914 13.584 63.208 14.126 64.4775 15.21C65.7568 16.2842 66.3965 17.8271 66.3965 19.8389C66.3965 20.7471 66.2451 21.6113 65.9424 22.4316C65.6494 23.2422 65.1709 23.96 64.5068 24.585C63.8428 25.2002 62.9688 25.6885 61.8848 26.0498C60.8105 26.4014 59.4922 26.5771 57.9297 26.5771H55.3223V35H52.832V13.584H58.4277ZM58.1934 15.708H55.3223V24.4385H57.6514C59.0186 24.4385 60.1562 24.292 61.0645 23.999C61.9824 23.7061 62.6709 23.2324 63.1299 22.5781C63.5889 21.9141 63.8184 21.0352 63.8184 19.9414C63.8184 18.5156 63.3643 17.4561 62.4561 16.7627C61.5479 16.0596 60.127 15.708 58.1934 15.708ZM90.4639 29.3018C90.4639 30.5713 90.1465 31.6553 89.5117 32.5537C88.8867 33.4424 88.0078 34.1211 86.875 34.5898C85.7422 35.0586 84.4092 35.293 82.876 35.293C82.0654 35.293 81.2988 35.2539 80.5762 35.1758C79.8535 35.0977 79.1895 34.9854 78.584 34.8389C77.9785 34.6924 77.4463 34.5117 76.9873 34.2969V31.9092C77.7197 32.2119 78.6133 32.4951 79.668 32.7588C80.7227 33.0127 81.8262 33.1396 82.9785 33.1396C84.0527 33.1396 84.9609 32.998 85.7031 32.7148C86.4453 32.4219 87.0068 32.0068 87.3877 31.4697C87.7783 30.9229 87.9736 30.2686 87.9736 29.5068C87.9736 28.7744 87.8125 28.1641 87.4902 27.6758C87.168 27.1777 86.6309 26.7285 85.8789 26.3281C85.1367 25.918 84.1211 25.4834 82.832 25.0244C81.9238 24.7021 81.123 24.3506 80.4297 23.9697C79.7363 23.5791 79.1553 23.1396 78.6865 22.6514C78.2178 22.1631 77.8613 21.5967 77.6172 20.9521C77.3828 20.3076 77.2656 19.5703 77.2656 18.7402C77.2656 17.5977 77.5537 16.6211 78.1299 15.8105C78.7158 14.9902 79.5215 14.3652 80.5469 13.9355C81.582 13.4961 82.7686 13.2764 84.1064 13.2764C85.249 13.2764 86.3037 13.3838 87.2705 13.5986C88.2471 13.8135 89.1406 14.1016 89.9512 14.4629L89.1748 16.6016C88.4033 16.2793 87.583 16.0107 86.7139 15.7959C85.8545 15.5811 84.9658 15.4736 84.0479 15.4736C83.1299 15.4736 82.3535 15.6104 81.7188 15.8838C81.0938 16.1475 80.6152 16.5234 80.2832 17.0117C79.9512 17.5 79.7852 18.0811 79.7852 18.7549C79.7852 19.5068 79.9414 20.1318 80.2539 20.6299C80.5762 21.1279 81.084 21.5723 81.7773 21.9629C82.4805 22.3438 83.4082 22.7441 84.5605 23.1641C85.8203 23.623 86.8896 24.1113 87.7686 24.6289C88.6475 25.1367 89.3164 25.7617 89.7754 26.5039C90.2344 27.2363 90.4639 28.1689 90.4639 29.3018Z" fill="#F1DD35"/>
</svg>
